<?xml version="1.0" encoding="UTF-8"?><svg id="Layer_1" xmlns="http://www.w3.org/2000/svg" width="1594.88" height="1599.81" viewBox="0 0 1594.88 1599.81"><defs><style>.cls-1{fill:#120a03;}.cls-1,.cls-2,.cls-3,.cls-4,.cls-5,.cls-6,.cls-7,.cls-8,.cls-9{stroke-width:0px;}.cls-2{fill:#eb7523;}.cls-3{fill:#b13023;}.cls-4{fill:#7290bc;}.cls-5{fill:#c9f0f7;}.cls-6{fill:#e4e4e4;}.cls-7{fill:#620e27;}.cls-8{fill:#ccd6e3;}.cls-9{fill:#f8c243;}</style></defs><rect class="cls-5" width="1594.88" height="1599.81"/><rect class="cls-1" x="596.78" y="121.05" width="71.35" height="71.35"/><rect class="cls-1" x="953.55" y="121.05" width="71.35" height="71.35"/><rect class="cls-1" x="596.78" y="192.41" width="71.35" height="71.35"/><rect class="cls-1" x="953.55" y="192.41" width="71.35" height="71.35"/><rect class="cls-1" x="596.78" y="263.76" width="71.35" height="71.35"/><rect class="cls-1" x="953.55" y="263.76" width="71.35" height="71.35"/><rect class="cls-1" x="382.72" y="335.11" width="71.35" height="71.35"/><rect class="cls-1" x="668.13" y="335.11" width="71.35" height="71.35"/><rect class="cls-1" x="739.49" y="335.11" width="71.35" height="71.35"/><rect class="cls-1" x="810.84" y="335.11" width="71.35" height="71.35"/><rect class="cls-1" x="882.19" y="335.11" width="71.35" height="71.35"/><rect class="cls-1" x="1167.6" y="335.11" width="71.35" height="71.35"/><rect class="cls-1" x="382.72" y="406.46" width="71.35" height="71.35"/><rect class="cls-1" x="596.78" y="406.46" width="71.35" height="71.35"/><rect class="cls-7" x="668.13" y="406.46" width="71.35" height="71.35"/><rect class="cls-3" x="739.49" y="406.46" width="71.35" height="71.35"/><rect class="cls-2" x="810.84" y="406.46" width="71.35" height="71.35"/><rect class="cls-7" x="882.19" y="406.46" width="71.35" height="71.35"/><rect class="cls-1" x="953.55" y="406.46" width="71.35" height="71.35"/><rect class="cls-1" x="1167.6" y="406.46" width="71.35" height="71.35"/><rect class="cls-1" x="382.72" y="477.82" width="71.35" height="71.35"/><rect class="cls-1" x="596.78" y="477.82" width="71.35" height="71.35"/><rect class="cls-7" x="668.13" y="477.82" width="71.35" height="71.35"/><rect class="cls-3" x="739.49" y="477.82" width="71.35" height="71.35"/><rect class="cls-2" x="810.84" y="477.82" width="71.35" height="71.35"/><rect class="cls-7" x="882.19" y="477.82" width="71.35" height="71.35"/><rect class="cls-1" x="953.55" y="477.82" width="71.35" height="71.35"/><rect class="cls-1" x="1167.6" y="477.82" width="71.35" height="71.35"/><rect class="cls-1" x="454.08" y="549.17" width="71.35" height="71.35"/><rect class="cls-1" x="668.13" y="549.17" width="71.35" height="71.35"/><rect class="cls-7" x="739.49" y="549.17" width="71.35" height="71.35"/><rect class="cls-7" x="810.84" y="549.17" width="71.35" height="71.35"/><rect class="cls-1" x="882.19" y="549.17" width="71.35" height="71.35"/><rect class="cls-1" x="1096.25" y="549.17" width="71.35" height="71.35"/><rect class="cls-1" x="525.43" y="620.52" width="71.35" height="71.35"/><rect class="cls-8" x="668.13" y="620.52" width="71.35" height="71.35"/><rect class="cls-1" x="739.49" y="620.52" width="71.35" height="71.35"/><rect class="cls-1" x="810.84" y="620.52" width="71.35" height="71.35"/><rect class="cls-1" x="1024.9" y="620.52" width="71.35" height="71.35"/><rect class="cls-1" x="596.78" y="691.88" width="71.35" height="71.35"/><rect class="cls-1" x="668.13" y="691.88" width="71.35" height="71.35"/><rect class="cls-3" x="739.49" y="691.88" width="71.35" height="71.35"/><rect class="cls-2" x="810.84" y="691.88" width="71.35" height="71.35"/><rect class="cls-1" x="882.19" y="691.88" width="71.35" height="71.35"/><rect class="cls-1" x="953.55" y="691.88" width="71.35" height="71.35"/><rect class="cls-4" x="596.78" y="763.23" width="71.35" height="71.35"/><rect class="cls-1" x="668.13" y="763.23" width="71.35" height="71.35"/><rect class="cls-7" x="739.49" y="763.23" width="71.35" height="71.35"/><rect class="cls-2" x="810.84" y="763.23" width="71.35" height="71.35"/><rect class="cls-1" x="882.19" y="763.23" width="71.35" height="71.35"/><rect class="cls-4" x="953.55" y="763.23" width="71.35" height="71.35"/><rect class="cls-4" x="525.43" y="834.58" width="71.35" height="71.35"/><rect class="cls-8" x="596.78" y="834.58" width="71.35" height="71.35"/><rect class="cls-8" x="668.13" y="834.58" width="71.35" height="71.35"/><rect class="cls-1" x="739.49" y="834.58" width="71.35" height="71.35"/><rect class="cls-1" x="810.84" y="834.58" width="71.35" height="71.35"/><rect class="cls-8" x="882.19" y="834.58" width="71.35" height="71.35"/><rect class="cls-8" x="953.55" y="834.58" width="71.35" height="71.35"/><rect class="cls-4" x="1024.9" y="834.58" width="71.35" height="71.35"/><rect class="cls-4" x="454.08" y="905.93" width="71.35" height="71.35"/><rect class="cls-8" x="525.43" y="905.93" width="71.35" height="71.35"/><rect class="cls-6" x="596.78" y="905.93" width="71.35" height="71.35"/><rect class="cls-1" x="668.13" y="905.93" width="71.35" height="71.35"/><rect class="cls-9" x="739.49" y="905.93" width="71.35" height="71.35"/><rect class="cls-9" x="810.84" y="905.93" width="71.35" height="71.35"/><rect class="cls-1" x="882.19" y="905.93" width="71.35" height="71.35"/><rect class="cls-6" x="953.55" y="905.93" width="71.35" height="71.35"/><rect class="cls-8" x="1024.9" y="905.93" width="71.35" height="71.35"/><rect class="cls-4" x="1096.25" y="905.93" width="71.35" height="71.35"/><rect class="cls-4" x="382.72" y="977.29" width="71.35" height="71.35"/><rect class="cls-8" x="454.08" y="977.29" width="71.35" height="71.35"/><rect class="cls-6" x="525.43" y="977.29" width="71.35" height="71.35"/><rect class="cls-8" x="596.78" y="977.29" width="71.35" height="71.35"/><rect class="cls-1" x="668.13" y="977.29" width="71.35" height="71.35"/><rect class="cls-1" x="739.49" y="977.29" width="71.35" height="71.35"/><rect class="cls-1" x="810.84" y="977.29" width="71.35" height="71.35"/><rect class="cls-1" x="882.19" y="977.29" width="71.35" height="71.35"/><rect class="cls-8" x="953.55" y="977.29" width="71.35" height="71.35"/><rect class="cls-6" x="1024.9" y="977.29" width="71.35" height="71.35"/><rect class="cls-8" x="1096.25" y="977.29" width="71.35" height="71.35"/><rect class="cls-4" x="1167.6" y="977.29" width="71.35" height="71.35"/><rect class="cls-4" x="311.37" y="1048.64" width="71.35" height="71.35"/><rect class="cls-8" x="382.72" y="1048.64" width="71.35" height="71.35"/><rect class="cls-6" x="454.08" y="1048.64" width="71.35" height="71.35"/><rect class="cls-8" x="525.43" y="1048.64" width="71.35" height="71.35"/><rect class="cls-1" x="596.78" y="1048.64" width="71.35" height="71.35"/><rect class="cls-2" x="668.13" y="1048.64" width="71.35" height="71.35"/><rect class="cls-2" x="739.49" y="1048.64" width="71.35" height="71.35"/><rect class="cls-9" x="810.84" y="1048.64" width="71.35" height="71.35"/><rect class="cls-2" x="882.19" y="1048.64" width="71.35" height="71.35"/><rect class="cls-1" x="953.55" y="1048.64" width="71.35" height="71.35"/><rect class="cls-8" x="1024.9" y="1048.64" width="71.35" height="71.35"/><rect class="cls-6" x="1096.25" y="1048.64" width="71.35" height="71.35"/><rect class="cls-8" x="1167.6" y="1048.64" width="71.35" height="71.35"/><rect class="cls-4" x="1238.96" y="1048.64" width="71.35" height="71.35"/><rect class="cls-4" x="240.02" y="1119.99" width="71.35" height="71.35"/><rect class="cls-8" x="311.37" y="1119.99" width="71.35" height="71.35"/><rect class="cls-6" x="382.72" y="1119.99" width="71.35" height="71.35"/><rect class="cls-8" x="454.08" y="1119.99" width="71.35" height="71.35"/><rect class="cls-8" x="525.43" y="1119.99" width="71.35" height="71.35"/><rect class="cls-1" x="596.78" y="1119.99" width="71.35" height="71.35"/><rect class="cls-1" x="668.13" y="1119.99" width="71.35" height="71.35"/><rect class="cls-1" x="739.49" y="1119.99" width="71.35" height="71.35"/><rect class="cls-1" x="810.84" y="1119.99" width="71.35" height="71.35"/><rect class="cls-1" x="882.19" y="1119.99" width="71.35" height="71.35"/><rect class="cls-1" x="953.55" y="1119.99" width="71.35" height="71.35"/><rect class="cls-8" x="1024.9" y="1119.99" width="71.35" height="71.35"/><rect class="cls-8" x="1096.25" y="1119.99" width="71.35" height="71.35"/><rect class="cls-6" x="1167.6" y="1119.99" width="71.35" height="71.35"/><rect class="cls-8" x="1238.96" y="1119.99" width="71.35" height="71.35"/><rect class="cls-4" x="1310.31" y="1119.99" width="71.35" height="71.35"/><rect class="cls-4" x="240.02" y="1191.35" width="71.35" height="71.35"/><rect class="cls-6" x="311.37" y="1191.35" width="71.35" height="71.35"/><rect class="cls-8" x="382.72" y="1191.35" width="71.35" height="71.35"/><rect class="cls-8" x="454.08" y="1191.35" width="71.35" height="71.35"/><rect class="cls-6" x="525.43" y="1191.35" width="71.35" height="71.35"/><rect class="cls-1" x="596.78" y="1191.35" width="71.35" height="71.35"/><rect class="cls-2" x="668.13" y="1191.35" width="71.35" height="71.35"/><rect class="cls-2" x="739.49" y="1191.35" width="71.35" height="71.35"/><rect class="cls-9" x="810.84" y="1191.35" width="71.35" height="71.35"/><rect class="cls-2" x="882.19" y="1191.35" width="71.35" height="71.35"/><rect class="cls-1" x="953.55" y="1191.35" width="71.35" height="71.35"/><rect class="cls-6" x="1024.9" y="1191.35" width="71.35" height="71.35"/><rect class="cls-8" x="1096.25" y="1191.35" width="71.35" height="71.35"/><rect class="cls-8" x="1167.6" y="1191.35" width="71.35" height="71.35"/><rect class="cls-6" x="1238.96" y="1191.35" width="71.35" height="71.35"/><rect class="cls-4" x="1310.31" y="1191.35" width="71.35" height="71.35"/><rect class="cls-4" x="240.02" y="1262.7" width="71.35" height="71.35"/><rect class="cls-8" x="311.37" y="1262.7" width="71.35" height="71.35"/><rect class="cls-8" x="382.72" y="1262.7" width="71.35" height="71.35"/><rect class="cls-6" x="454.08" y="1262.7" width="71.35" height="71.35"/><rect class="cls-4" x="525.43" y="1262.7" width="71.35" height="71.35"/><rect class="cls-1" x="596.78" y="1262.7" width="71.35" height="71.35"/><rect class="cls-1" x="668.13" y="1262.7" width="71.35" height="71.35"/><rect class="cls-1" x="739.49" y="1262.7" width="71.35" height="71.35"/><rect class="cls-1" x="810.84" y="1262.7" width="71.35" height="71.35"/><rect class="cls-1" x="882.19" y="1262.7" width="71.35" height="71.35"/><rect class="cls-1" x="953.55" y="1262.7" width="71.35" height="71.35"/><rect class="cls-4" x="1024.9" y="1262.7" width="71.35" height="71.35"/><rect class="cls-6" x="1096.25" y="1262.7" width="71.35" height="71.35"/><rect class="cls-8" x="1167.6" y="1262.7" width="71.35" height="71.35"/><rect class="cls-8" x="1238.96" y="1262.7" width="71.35" height="71.35"/><rect class="cls-4" x="1310.31" y="1262.7" width="71.35" height="71.35"/><rect class="cls-4" x="240.02" y="1334.05" width="71.35" height="71.35"/><rect class="cls-6" x="311.37" y="1334.05" width="71.35" height="71.35"/><rect class="cls-6" x="382.72" y="1334.05" width="71.35" height="71.35"/><rect class="cls-4" x="454.08" y="1334.05" width="71.35" height="71.35"/><rect class="cls-1" x="525.43" y="1334.05" width="71.35" height="71.35"/><rect class="cls-1" x="668.13" y="1334.05" width="71.35" height="71.35"/><rect class="cls-2" x="739.49" y="1334.05" width="71.35" height="71.35"/><rect class="cls-2" x="810.84" y="1334.05" width="71.35" height="71.35"/><rect class="cls-1" x="882.19" y="1334.05" width="71.35" height="71.35"/><rect class="cls-1" x="1024.9" y="1334.05" width="71.35" height="71.35"/><rect class="cls-4" x="1096.25" y="1334.05" width="71.35" height="71.35"/><rect class="cls-6" x="1167.6" y="1334.05" width="71.35" height="71.35"/><rect class="cls-6" x="1238.96" y="1334.05" width="71.35" height="71.35"/><rect class="cls-4" x="1310.31" y="1334.05" width="71.35" height="71.35"/><rect class="cls-4" x="240.02" y="1405.4" width="71.35" height="71.35"/><rect class="cls-4" x="311.37" y="1405.4" width="71.35" height="71.35"/><rect class="cls-4" x="382.72" y="1405.4" width="71.35" height="71.35"/><rect class="cls-1" x="525.43" y="1405.4" width="71.35" height="71.35"/><rect class="cls-1" x="739.49" y="1405.4" width="71.35" height="71.35"/><rect class="cls-1" x="810.84" y="1405.4" width="71.35" height="71.35"/><rect class="cls-1" x="1024.9" y="1405.4" width="71.35" height="71.35"/><rect class="cls-4" x="1167.6" y="1405.4" width="71.35" height="71.35"/><rect class="cls-4" x="1238.96" y="1405.4" width="71.35" height="71.35"/><rect class="cls-4" x="1310.31" y="1405.4" width="71.35" height="71.35"/></svg>